<svg width="100%" height="100%" xmlns="http://www.w3.org/2000/svg" viewBox="0 0 1152 576">

  <rect x="0" y="0" width="100%" height="100%" stroke="black" stroke-width="1" fill="white"/>
  <rect x="96" y="48" width="960" height="480" stroke="black" stroke-width="1" fill="white"/>
  
  <polygon points="298,231 738,443 628,125" style="fill:green;stroke:blue;stroke-width:2" />
  
  <rect x="186" y="123" width="10" height="10" stroke="black" stroke-width="1" fill="black"/>
  <rect x="296" y="123" width="10" height="10" stroke="black" stroke-width="1" fill="black"/>
  <rect x="406" y="123" width="10" height="10" stroke="black" stroke-width="1" fill="black"/>
  <rect x="516" y="123" width="10" height="10" stroke="black" stroke-width="1" fill="black"/>
  <rect x="626" y="123" width="10" height="10" stroke="black" stroke-width="1" fill="black"/>
  <circle cx="628" cy="125" r="15" stroke="black" stroke-width="2" fill="grey"/>
  <rect x="736" y="123" width="10" height="10" stroke="black" stroke-width="1" fill="black"/>
  <rect x="846" y="123" width="10" height="10" stroke="black" stroke-width="1" fill="black"/>
  <rect x="956" y="123" width="10" height="10" stroke="black" stroke-width="1" fill="black"/>
  
  <rect x="186" y="229" width="10" height="10" stroke="black" stroke-width="1" fill="black"/>
  <rect x="296" y="229" width="10" height="10" stroke="black" stroke-width="1" fill="black"/>
  <circle cx="298" cy="231" r="15" stroke="black" stroke-width="2" fill="grey"/>
  <rect x="406" y="229" width="10" height="10" stroke="black" stroke-width="1" fill="black"/>
  <rect x="516" y="229" width="10" height="10" stroke="black" stroke-width="1" fill="black"/>
  <rect x="626" y="229" width="10" height="10" stroke="black" stroke-width="1" fill="black"/>
  <rect x="736" y="229" width="10" height="10" stroke="black" stroke-width="1" fill="black"/>
  <rect x="846" y="229" width="10" height="10" stroke="black" stroke-width="1" fill="black"/>
  <rect x="956" y="229" width="10" height="10" stroke="black" stroke-width="1" fill="black"/>
  
  <rect x="186" y="335" width="10" height="10" stroke="black" stroke-width="1" fill="black"/>
  <rect x="296" y="335" width="10" height="10" stroke="black" stroke-width="1" fill="black"/>
  <rect x="406" y="335" width="10" height="10" stroke="black" stroke-width="1" fill="black"/>
  <rect x="516" y="335" width="10" height="10" stroke="black" stroke-width="1" fill="black"/>
  <rect x="626" y="335" width="10" height="10" stroke="black" stroke-width="1" fill="black"/>
  <circle cx="628" cy="337" r="15" stroke="black" stroke-width="2" fill="grey"/>
  <rect x="736" y="335" width="10" height="10" stroke="black" stroke-width="1" fill="black"/>
  <rect x="846" y="335" width="10" height="10" stroke="black" stroke-width="1" fill="black"/>
  <rect x="956" y="335" width="10" height="10" stroke="black" stroke-width="1" fill="black"/>
  
  <rect x="186" y="441" width="10" height="10" stroke="black" stroke-width="1" fill="black"/>
  <rect x="296" y="441" width="10" height="10" stroke="black" stroke-width="1" fill="black"/>
  <rect x="406" y="441" width="10" height="10" stroke="black" stroke-width="1" fill="black"/>
  <rect x="516" y="441" width="10" height="10" stroke="black" stroke-width="1" fill="black"/>
  <rect x="626" y="441" width="10" height="10" stroke="black" stroke-width="1" fill="black"/>
  <circle cx="738" cy="443" r="15" stroke="black" stroke-width="2" fill="grey"/>
  <rect x="846" y="441" width="10" height="10" stroke="black" stroke-width="1" fill="black"/>
  <rect x="956" y="441" width="10" height="10" stroke="black" stroke-width="1" fill="black"/>
  

  
  <text x="96" y="36" font-family="arial" font-size="20" fill="blue">INF1900-158161</text>      
</svg> 